<mxfile host="app.diagrams.net" agent="Mozilla/5.0 (Windows NT 10.0; Win64; x64) AppleWebKit/537.36 (KHTML, like Gecko) Chrome/128.0.0.0 Safari/537.36 OPR/114.0.0.0" version="26.0.10">
  <diagram id="C5RBs43oDa-KdzZeNtuy" name="Page-1">
    <mxGraphModel dx="968" dy="553" grid="1" gridSize="10" guides="1" tooltips="1" connect="1" arrows="1" fold="1" page="1" pageScale="1" pageWidth="827" pageHeight="1169" math="0" shadow="0">
      <root>
        <mxCell id="WIyWlLk6GJQsqaUBKTNV-0" />
        <mxCell id="WIyWlLk6GJQsqaUBKTNV-1" parent="WIyWlLk6GJQsqaUBKTNV-0" />
        <mxCell id="rZk21FpyKedWylgDQ2d7-2" value="" style="edgeStyle=orthogonalEdgeStyle;rounded=0;orthogonalLoop=1;jettySize=auto;html=1;" edge="1" parent="WIyWlLk6GJQsqaUBKTNV-1" source="rZk21FpyKedWylgDQ2d7-0">
          <mxGeometry relative="1" as="geometry">
            <mxPoint x="176" y="600" as="targetPoint" />
          </mxGeometry>
        </mxCell>
        <mxCell id="rZk21FpyKedWylgDQ2d7-20" value="(1:M)" style="edgeLabel;html=1;align=center;verticalAlign=middle;resizable=0;points=[];" vertex="1" connectable="0" parent="rZk21FpyKedWylgDQ2d7-2">
          <mxGeometry x="-0.1638" y="-2" relative="1" as="geometry">
            <mxPoint as="offset" />
          </mxGeometry>
        </mxCell>
        <mxCell id="rZk21FpyKedWylgDQ2d7-0" value="Clothing Item&lt;div&gt;----------------------&lt;br&gt;&lt;div&gt;PK:&lt;span style=&quot;background-color: transparent; color: light-dark(rgb(0, 0, 0), rgb(255, 255, 255));&quot;&gt;itemID&lt;/span&gt;&lt;div&gt;itemName&lt;/div&gt;&lt;div&gt;itemColor&lt;/div&gt;&lt;div&gt;itemSize&lt;/div&gt;&lt;div&gt;itembrand&lt;/div&gt;&lt;div&gt;itemMaterial&lt;/div&gt;&lt;div&gt;itemSeason&lt;/div&gt;&lt;div&gt;itemStorageLocation&lt;/div&gt;&lt;div&gt;itemCondition&lt;/div&gt;&lt;/div&gt;&lt;/div&gt;" style="rounded=0;whiteSpace=wrap;html=1;" vertex="1" parent="WIyWlLk6GJQsqaUBKTNV-1">
          <mxGeometry x="101" y="330" width="150" height="190" as="geometry" />
        </mxCell>
        <mxCell id="rZk21FpyKedWylgDQ2d7-4" value="UsageLog&lt;div&gt;--------------&lt;/div&gt;&lt;div&gt;PK: logID&lt;/div&gt;&lt;div&gt;FK: itemID&lt;/div&gt;&lt;div&gt;dateWorn&lt;/div&gt;&lt;div&gt;weatherCondition&lt;/div&gt;&lt;div&gt;usageNotes&lt;/div&gt;" style="whiteSpace=wrap;html=1;rounded=0;" vertex="1" parent="WIyWlLk6GJQsqaUBKTNV-1">
          <mxGeometry x="116" y="600" width="120" height="115" as="geometry" />
        </mxCell>
        <mxCell id="rZk21FpyKedWylgDQ2d7-14" value="" style="rounded=0;orthogonalLoop=1;jettySize=auto;html=1;strokeColor=default;startArrow=none;startFill=0;endArrow=ERmany;endFill=0;" edge="1" parent="WIyWlLk6GJQsqaUBKTNV-1" source="rZk21FpyKedWylgDQ2d7-7" target="rZk21FpyKedWylgDQ2d7-9">
          <mxGeometry relative="1" as="geometry" />
        </mxCell>
        <mxCell id="rZk21FpyKedWylgDQ2d7-19" value="(1:M)" style="edgeLabel;html=1;align=center;verticalAlign=middle;resizable=0;points=[];" vertex="1" connectable="0" parent="rZk21FpyKedWylgDQ2d7-14">
          <mxGeometry x="-0.1291" y="1" relative="1" as="geometry">
            <mxPoint as="offset" />
          </mxGeometry>
        </mxCell>
        <mxCell id="rZk21FpyKedWylgDQ2d7-7" value="OutfitClothingItem&lt;div&gt;----------------------&lt;/div&gt;&lt;div&gt;PK, FK: outfitID&lt;/div&gt;&lt;div&gt;PK, FK: itemID&lt;/div&gt;" style="rounded=0;whiteSpace=wrap;html=1;" vertex="1" parent="WIyWlLk6GJQsqaUBKTNV-1">
          <mxGeometry x="336" y="560" width="120" height="60" as="geometry" />
        </mxCell>
        <mxCell id="rZk21FpyKedWylgDQ2d7-9" value="Outfit&lt;div&gt;------------------&lt;/div&gt;&lt;div&gt;PK: outfitID&lt;/div&gt;&lt;div&gt;name&lt;/div&gt;&lt;div&gt;dateCreated&lt;/div&gt;" style="rounded=0;whiteSpace=wrap;html=1;" vertex="1" parent="WIyWlLk6GJQsqaUBKTNV-1">
          <mxGeometry x="321" y="360" width="150" height="110" as="geometry" />
        </mxCell>
        <mxCell id="rZk21FpyKedWylgDQ2d7-10" value="Wishlist&lt;div&gt;--------------&lt;/div&gt;&lt;div&gt;PK: wishlistID&lt;/div&gt;&lt;div&gt;itemName&lt;/div&gt;&lt;div&gt;category&lt;/div&gt;&lt;div&gt;notes&lt;/div&gt;&lt;div&gt;&lt;div&gt;lowPriority&lt;/div&gt;&lt;div&gt;mediumPriority&lt;/div&gt;&lt;div&gt;highPriority&lt;/div&gt;&lt;/div&gt;" style="rounded=0;whiteSpace=wrap;html=1;" vertex="1" parent="WIyWlLk6GJQsqaUBKTNV-1">
          <mxGeometry x="510" y="402.5" width="144" height="157.5" as="geometry" />
        </mxCell>
        <mxCell id="rZk21FpyKedWylgDQ2d7-15" value="" style="rounded=0;orthogonalLoop=1;jettySize=auto;html=1;entryX=1.013;entryY=0.987;entryDx=0;entryDy=0;entryPerimeter=0;exitX=0;exitY=0;exitDx=0;exitDy=0;endArrow=ERmany;endFill=0;" edge="1" parent="WIyWlLk6GJQsqaUBKTNV-1" source="rZk21FpyKedWylgDQ2d7-7">
          <mxGeometry relative="1" as="geometry">
            <mxPoint x="334.05" y="562.47" as="sourcePoint" />
            <mxPoint x="251.00000000000006" y="520" as="targetPoint" />
          </mxGeometry>
        </mxCell>
        <mxCell id="rZk21FpyKedWylgDQ2d7-18" value="(1:M)" style="edgeLabel;html=1;align=center;verticalAlign=middle;resizable=0;points=[];" vertex="1" connectable="0" parent="rZk21FpyKedWylgDQ2d7-15">
          <mxGeometry x="0.0841" relative="1" as="geometry">
            <mxPoint as="offset" />
          </mxGeometry>
        </mxCell>
      </root>
    </mxGraphModel>
  </diagram>
</mxfile>
